<svg xmlns="http://www.w3.org/2000/svg" width="64" height="64" viewBox="0 0 64 64">
  <!-- Titik utama -->
  <circle cx="12" cy="20" r="3" fill="white" stroke="#4DB8FF" stroke-width="1.5"/>
  <circle cx="32" cy="32" r="3" fill="white" stroke="#4DB8FF" stroke-width="1.5"/>
  <circle cx="52" cy="44" r="3" fill="white" stroke="#4DB8FF" stroke-width="1.5"/>
  
  <!-- Garis penghubung -->
  <line x1="12" y1="20" x2="32" y2="32" stroke="#4DB8FF" stroke-width="1" stroke-dasharray="3,2"/>
  <line x1="32" y1="32" x2="52" y2="44" stroke="#4DB8FF" stroke-width="1" stroke-dasharray="3,2"/>
  
  <!-- Spark / aksen lingkaran acak -->
  <circle cx="18" cy="14" r="1.5" fill="#4DB8FF"/>
  <circle cx="28" cy="40" r="1" fill="white"/>
  <circle cx="46" cy="50" r="1.2" fill="#4DB8FF"/>
  <circle cx="10" cy="30" r="0.9" fill="white"/>
  <circle cx="56" cy="20" r="1.2" fill="#4DB8FF"/>
  <circle cx="40" cy="10" r="1.3" fill="white"/>
  <circle cx="22" cy="52" r="1.1" fill="#4DB8FF"/>
  <circle cx="6" cy="8" r="0.8" fill="white"/>
  <circle cx="60" cy="8" r="1" fill="#4DB8FF"/>
  <circle cx="8" cy="54" r="1.4" fill="#4DB8FF"/>
  <circle cx="54" cy="58" r="0.9" fill="white"/>
  <circle cx="30" cy="6" r="1.1" fill="#4DB8FF"/>
  
  <!-- Bintang kecil acak -->
  <polygon points="38,20 40,24 44,24 41,27 42,31 38,29 34,31 35,27 32,24 36,24" 
           fill="white" stroke="#4DB8FF" stroke-width="0.5"/>
  <polygon points="20,8 21,10 24,10 22,12 23,14 20,13 17,14 18,12 16,10 19,10"
           fill="white" stroke="#4DB8FF" stroke-width="0.4"/>
  <polygon points="50,30 52,33 56,33 53,36 54,39 50,37 46,39 47,36 44,33 48,33"
           fill="white" stroke="#4DB8FF" stroke-width="0.4"/>
  <polygon points="30,50 32,53 36,53 33,56 34,59 30,57 26,59 27,56 24,53 28,53"
           fill="white" stroke="#4DB8FF" stroke-width="0.4"/>
  <polygon points="8,38 9,40 12,40 10,42 11,44 8,43 5,44 6,42 4,40 7,40"
           fill="white" stroke="#4DB8FF" stroke-width="0.3"/>
  <polygon points="58,46 59,48 62,48 60,50 61,52 58,51 55,52 56,50 54,48 57,48"
           fill="white" stroke="#4DB8FF" stroke-width="0.3"/>
</svg>
